<?xml version="1.0" standalone="no"?>
<!DOCTYPE svg PUBLIC "-//W3C//DTD SVG 20010904//EN"
 "http://www.w3.org/TR/2001/REC-SVG-20010904/DTD/svg10.dtd">
<svg version="1.0" xmlns="http://www.w3.org/2000/svg"
 width="200.000000pt" height="200.000000pt" viewBox="0 0 200.000000 200.000000"
 preserveAspectRatio="xMidYMid meet">

<g transform="translate(0.000000,200.000000) scale(0.100000,-0.100000)"
fill="#000000" stroke="none">
<path d="M865 1945 c-19 -18 -25 -35 -25 -68 l0 -44 -100 -33 -101 -33 -35 42
c-23 26 -44 41 -59 41 -12 0 -65 -30 -116 -68 -108 -78 -117 -96 -73 -161 l26
-40 -47 -63 c-26 -35 -52 -73 -58 -86 -9 -19 -16 -22 -36 -18 -80 19 -92 19
-111 1 -20 -19 -80 -191 -80 -231 0 -26 24 -48 73 -64 l37 -12 0 -108 0 -108
-38 -12 c-50 -17 -72 -38 -72 -69 0 -36 58 -208 77 -226 17 -18 48 -19 93 -3
30 10 35 9 47 -8 8 -10 37 -50 64 -87 l51 -68 -27 -39 c-44 -63 -35 -84 70
-162 109 -82 129 -85 179 -27 l35 42 101 -33 100 -33 0 -44 c0 -33 6 -50 25
-68 23 -24 31 -25 135 -25 104 0 112 1 135 25 19 18 25 35 25 69 l0 44 73 22
c39 12 84 28 98 35 25 13 28 12 63 -31 24 -28 45 -44 60 -44 23 0 180 106 204
137 18 25 15 49 -15 94 l-26 40 21 27 c12 15 39 53 59 84 33 50 41 57 63 53
87 -18 91 -18 110 0 20 18 80 193 80 232 0 26 -25 47 -72 63 l-38 12 0 108 0
108 38 12 c50 17 72 38 72 69 0 36 -58 208 -77 226 -17 18 -48 19 -93 3 -30
-10 -35 -9 -47 8 -8 10 -37 50 -64 87 l-51 68 26 39 c32 49 33 80 4 107 -51
45 -173 123 -194 123 -14 0 -36 -15 -58 -41 l-35 -42 -101 33 -100 33 0 42 c0
28 -7 51 -21 69 -20 25 -23 26 -135 26 -109 0 -116 -1 -139 -25z m225 -83 c0
-64 18 -87 82 -102 29 -7 80 -23 112 -36 82 -33 95 -31 137 17 l36 42 66 -47
c37 -26 69 -52 72 -57 3 -5 -6 -26 -20 -46 -14 -21 -25 -45 -25 -54 0 -8 21
-42 46 -75 26 -32 60 -80 76 -107 35 -55 57 -63 116 -43 33 12 44 13 47 3 32
-87 54 -162 48 -168 -5 -3 -25 -12 -45 -18 -20 -7 -41 -18 -48 -25 -12 -15
-17 -248 -6 -283 5 -15 23 -27 56 -38 28 -9 50 -18 50 -19 0 -2 -46 -139 -55
-163 -3 -10 -14 -9 -47 3 -59 21 -83 12 -115 -43 -15 -26 -49 -74 -75 -107
-26 -32 -48 -67 -48 -76 0 -9 13 -35 29 -57 l29 -40 -62 -46 c-87 -64 -89 -64
-121 -23 -37 49 -57 52 -134 23 -36 -15 -91 -33 -122 -41 -63 -18 -79 -39 -79
-106 l0 -40 -90 0 -90 0 0 43 c0 71 -16 89 -95 110 -38 10 -89 27 -113 37 -66
29 -86 26 -123 -20 -18 -23 -38 -39 -45 -36 -6 2 -41 26 -77 51 l-65 47 29 41
c16 22 29 48 29 58 0 9 -20 41 -44 71 -24 29 -58 77 -76 106 -37 60 -58 69
-118 48 -33 -12 -44 -13 -47 -3 -10 26 -55 161 -55 163 0 2 18 9 40 15 67 20
71 30 71 179 0 149 -4 159 -71 179 -22 6 -40 13 -40 15 0 2 45 137 55 163 3
10 14 9 47 -3 60 -21 81 -12 118 48 18 29 52 77 76 106 24 30 44 62 44 71 0
10 -13 36 -29 58 l-29 40 62 46 c86 63 89 64 119 23 38 -49 59 -52 136 -23 36
15 91 33 122 41 63 18 79 39 79 106 l0 40 90 0 90 0 0 -48z"/>
<path d="M885 1645 c-150 -28 -259 -88 -367 -203 -73 -77 -135 -191 -159 -292
-22 -89 -17 -242 10 -330 19 -61 53 -143 66 -158 2 -2 15 4 29 13 l25 17 -24
47 c-61 122 -74 301 -30 439 61 193 225 346 425 398 133 34 321 6 440 -64 l45
-27 -42 -3 c-40 -3 -43 -5 -43 -33 l0 -29 105 0 c85 0 107 3 111 15 4 8 -9 58
-27 110 -30 84 -36 94 -54 89 -33 -10 -38 -21 -26 -55 6 -18 9 -34 7 -36 -2
-2 -26 9 -52 26 -62 37 -154 68 -241 81 -85 12 -111 11 -198 -5z"/>
<path d="M1533 1322 l-23 -17 25 -50 c76 -156 71 -366 -14 -532 -36 -72 -117
-159 -196 -212 -180 -120 -402 -132 -598 -33 l-72 37 43 3 c39 3 42 5 42 33
l0 29 -104 0 c-128 0 -129 -1 -83 -126 28 -74 36 -88 53 -86 31 6 37 18 25 53
-6 18 -10 33 -8 35 1 1 38 -15 82 -37 106 -52 180 -69 295 -69 192 0 350 67
475 201 159 170 218 401 158 619 -17 62 -63 170 -72 170 -3 0 -16 -8 -28 -18z"/>
<path d="M915 1277 c-31 -31 -35 -41 -35 -85 0 -34 6 -57 20 -75 23 -29 25
-37 8 -37 -7 0 -24 -11 -38 -25 -24 -23 -30 -24 -52 -15 l-25 12 19 36 c23 46
23 69 -2 110 -38 62 -114 70 -166 18 -38 -38 -44 -77 -18 -127 15 -29 14 -31
-12 -51 -14 -12 -33 -36 -40 -54 -18 -42 -19 -205 -2 -222 8 -8 50 -12 124
-12 87 0 114 -3 124 -15 10 -12 43 -15 180 -15 137 0 170 3 180 15 10 12 37
15 124 15 74 0 116 4 124 12 17 17 16 180 -2 222 -7 18 -26 42 -40 54 -26 20
-27 22 -12 51 26 50 20 89 -18 127 -52 52 -128 44 -166 -18 -25 -41 -25 -64
-2 -110 l19 -36 -24 -11 c-21 -10 -29 -8 -53 13 -16 13 -35 26 -42 28 -9 3 -6
13 10 33 34 42 31 115 -6 156 -24 27 -37 33 -85 37 -54 4 -58 3 -92 -31z m123
-43 c26 -18 30 -65 6 -88 -8 -9 -28 -16 -44 -16 -36 0 -60 24 -60 60 0 30 30
60 60 60 9 0 26 -7 38 -16z m-288 -64 c11 -11 20 -24 20 -30 0 -12 -37 -50
-48 -50 -17 0 -52 32 -52 47 0 21 29 53 47 53 7 0 22 -9 33 -20z m562 3 c10
-9 18 -24 18 -34 0 -17 -35 -49 -52 -49 -11 0 -48 38 -48 50 0 14 37 50 52 50
6 0 20 -7 30 -17z m-233 -158 c38 -19 41 -30 41 -141 l0 -94 -120 0 -120 0 0
98 c0 101 6 119 45 140 29 16 121 14 154 -3z m-291 -31 c20 -13 22 -24 22 -95
l0 -79 -90 0 -90 0 0 77 c0 97 12 113 84 113 31 0 61 -6 74 -16z m564 -1 c14
-13 18 -31 18 -95 l0 -78 -90 0 -90 0 0 79 c0 71 2 82 22 95 30 22 116 21 140
-1z"/>
</g>
</svg>
